<svg width="192" height="192" viewBox="0 0 192 192" fill="none" xmlns="http://www.w3.org/2000/svg">
<g clip-path="url(#clip0_2006_30)">
<rect width="192" height="192" fill="black"/>
<g filter="url(#filter0_f_2006_30)">
<circle cx="14" cy="16" r="50" fill="#FF9500"/>
</g>
<g filter="url(#filter1_f_2006_30)">
<circle cx="161" cy="146" r="50" fill="#FF9500"/>
</g>
<path d="M129.12 55C133.28 68.04 136.24 80.96 138 93.76C139.76 106.48 140.6 121.56 140.52 139H121.8V134.2C121.8 120.28 121.48 109 120.84 100.36C120.2 91.64 119.04 82.92 117.36 74.2C114.08 83.48 111.44 91.6 109.44 98.56C107.44 105.52 105.2 114.6 102.72 125.8H88.08C85.84 114.76 83.76 105.76 81.84 98.8C80 91.84 77.44 83.72 74.16 74.44C72.48 83.4 71.28 92.48 70.56 101.68C69.92 110.8 69.48 123.24 69.24 139H51C51.24 121.24 52.2 106 53.88 93.28C55.64 80.56 58.48 67.8 62.4 55H83.04C86.88 65.4 89.6 73.24 91.2 78.52C92.8 83.72 94.16 89.36 95.28 95.44C96.72 89.36 98.28 83.68 99.96 78.4C101.72 73.12 104.56 65.32 108.48 55H129.12Z" fill="#FF9500"/>
</g>
<defs>
<filter id="filter0_f_2006_30" x="-180.6" y="-178.6" width="389.2" height="389.2" filterUnits="userSpaceOnUse" color-interpolation-filters="sRGB">
<feFlood flood-opacity="0" result="BackgroundImageFix"/>
<feBlend mode="normal" in="SourceGraphic" in2="BackgroundImageFix" result="shape"/>
<feGaussianBlur stdDeviation="72.3" result="effect1_foregroundBlur_2006_30"/>
</filter>
<filter id="filter1_f_2006_30" x="-33.6" y="-48.6" width="389.2" height="389.2" filterUnits="userSpaceOnUse" color-interpolation-filters="sRGB">
<feFlood flood-opacity="0" result="BackgroundImageFix"/>
<feBlend mode="normal" in="SourceGraphic" in2="BackgroundImageFix" result="shape"/>
<feGaussianBlur stdDeviation="72.3" result="effect1_foregroundBlur_2006_30"/>
</filter>
<clipPath id="clip0_2006_30">
<rect width="192" height="192" fill="white"/>
</clipPath>
</defs>
</svg>
